<svg version="1.2" xmlns="http://www.w3.org/2000/svg" viewBox="244 1093 105 50" width="210" height="100">
	<style>
		.s0 { fill: #cd532a }
	</style>
	<g id="Layer 1">
		<path id="MadridAmor" class="s0" aria-label="Madrid Amor"  d="m246.6 1115h3.6c-0.1-0.9-0.1-2.1-0.1-2.9v-8.9l4.2 11.8h2.2l3.9-11.4v8.5c0 0.8 0 2-0.1 2.9h3.8c0-0.9-0.1-2.1-0.1-2.9v-12.2c0-0.8 0.1-2 0.1-2.9h-4.4l-4.3 12.7-4.4-12.7h-4.4c0.1 0.9 0.1 2.1 0.1 2.9v12.2c0 0.8 0 2-0.1 2.9zm19.7 0h4.1c0.1-0.8 0.3-1.7 0.6-2.4l0.2-0.6h6.7l0.1 0.6c0.3 0.7 0.5 1.6 0.6 2.4h4.4c-0.4-0.8-0.8-1.8-1-2.4l-5.2-15.6h-4.6c0 0.6-0.2 1.2-0.4 1.9l-4.5 13.7c-0.2 0.6-0.6 1.6-1 2.4zm5.8-6l2.4-8.4 2.4 8.4zm12.6 6h5.7c5.8 0 8.8-3.2 8.8-9.1 0-5.8-3-8.9-8.8-8.9h-5.7c0.1 1 0.1 2.1 0.1 2.9v12.2c0 0.8 0 2-0.1 2.9zm5.7-15c3.6 0 5.2 1.9 5.2 6 0 4.1-1.6 6-5.2 6h-2v-12zm11.2 15h3.8c-0.1-0.9-0.1-2.1-0.1-2.9v-3.3h0.4c2.2 0 3.4 0.6 5.3 4.2 3 5.5 7.1 7.8 13.7 7.8 0.9 0 1.7-0.1 2.4-0.4l0.2-2.7c-0.7 0.1-1.4 0.2-2.6 0.2-5 0-7.9-1.5-10.4-5.9-1.3-2.5-2.1-3.8-3.4-4.6 2.4-0.7 3.8-2.3 3.8-4.9 0-3.5-2.4-5.5-7-5.5h-6.1c0.1 0.9 0.1 2.1 0.1 2.9v12.2c0 0.8 0 2-0.1 2.9zm6-15c2.4 0 3.5 0.9 3.5 2.9 0 1.9-1.3 2.9-3.5 2.9h-2.3v-5.8zm9 13.2h3.4c-0.1-0.6-0.1-1.1-0.1-1.7v-11c0-0.6 0-1.1 0.1-1.7h-3.4c0.1 0.6 0.1 1.1 0.1 1.7v11c0 0.6 0 1.1-0.1 1.7zm7 1.8h5.8c5.7 0 8.8-3.2 8.8-9.1 0-5.8-3.1-8.9-8.8-8.9h-5.8c0.1 1 0.1 2.1 0.1 2.9v12.2c0 0.8 0 2-0.1 2.9zm5.8-15c3.5 0 5.1 1.9 5.1 6 0 4.1-1.6 6-5.1 6h-2.1v-12zm-57.1 23.9c0-0.8 0-2 0.1-2.9h-5.1c-0.3 0.6-0.6 1.2-0.9 1.9l-7.7 13.7c-0.5 0.8-0.9 1.6-1.4 2.4h4c0.3-0.8 0.7-1.7 1.1-2.4l0.9-1.7h5.4v1.2c0 0.8 0 2-0.1 2.9h3.8c-0.1-0.9-0.1-2.1-0.1-2.9zm-7.5 8.2l3.9-7.2v7.2zm10.8 6.9h3.6c-0.1-0.9-0.1-2.1-0.1-2.8v-8.9l4.2 11.7h2.2l3.9-11.4v8.6c0 0.7 0 1.9-0.1 2.8h3.8c0-0.9-0.1-2.1-0.1-2.8v-12.3c0-0.7 0.1-1.9 0.1-2.9h-4.4l-4.3 12.7-4.4-12.7h-4.4c0.1 1 0.1 2.2 0.1 2.9v12.3c0 0.7 0 1.9-0.1 2.8zm27.3-3.3c4.4 0 7-2.8 7-7.5 0-4.7-2.6-7.4-7-7.4-4.4 0-6.9 2.7-6.9 7.4 0 4.7 2.5 7.5 6.9 7.5zm0-2.8c-2.4 0-3.7-1.6-3.7-4.6 0-3 1.3-4.7 3.7-4.7 2.4 0 3.7 1.7 3.7 4.7 0 3-1.3 4.6-3.7 4.6zm9.7 6.1h3.8c0-0.9-0.1-2.1-0.1-2.8v-3.4h1.5c1.9 0 2.6 0.7 3.9 4.2 1.8 4.6 3.9 6.7 9.4 6.7 0.9 0 1.6-0.1 2.2-0.3l0.2-3c-0.6 0.2-1.3 0.3-2.3 0.3-3.2 0-4.9-1.3-6.1-4.7-0.9-2.5-1.4-3.8-2.7-4.6 2-0.8 3.3-2.3 3.3-4.8 0-3.5-2.4-5.6-7-5.6h-6.1c0.1 1 0.1 2.2 0.1 2.9v12.3c0 0.7 0 1.9-0.1 2.8zm6-15c2.4 0 3.5 0.9 3.5 2.9 0 1.9-1.3 2.9-3.5 2.9h-2.3v-5.8z"/>
	</g>
</svg>
