<svg version="1.2" xmlns="http://www.w3.org/2000/svg" viewBox="0 0 842 1191" width="842" height="1191">
	<style>
		.s0 { fill: #cd532a } 
	</style>
	<g id="Layer 1">
		<path id="Contact" class="s0" aria-label="Contact"  d="m180.9 425.1c-1.1-0.2-2.4-0.4-3.7-0.4-5.7 0-9.2 3.5-9.2 9.3 0 5.8 3.5 9.3 9.2 9.3 1.4 0 2.6-0.1 3.7-0.3l0.2-3.2c-0.8 0.2-2.1 0.4-3.6 0.4-3.7 0-5.9-2.3-5.9-6.2 0-3.9 2.2-6.2 5.9-6.2 1.2 0 2.7 0.2 3.6 0.6zm9.4 15.1c-2.9 0-4.7-2.4-4.7-6.2 0-3.8 1.8-6.2 4.7-6.2 2.8 0 4.7 2.4 4.7 6.2 0 3.8-1.9 6.2-4.7 6.2zm0 3.1c5.1 0 8.3-3.7 8.3-9.4 0-5.6-3.2-9.2-8.3-9.2-5.1 0-8.3 3.6-8.3 9.2 0 5.7 3.2 9.4 8.3 9.4zm11.3-0.3h3.6c-0.1-0.9-0.1-2.2-0.1-2.9v-9.6l7.6 12.5h3.2v-15.2c0-0.7 0.1-1.9 0.1-2.8h-3.5c0 0.9 0.1 2.1 0.1 2.8v9l-7.2-11.8h-3.8c0.1 0.9 0.1 2.1 0.1 2.8v12.3c0 0.7 0 2-0.1 2.9zm21.2 0h3.8c-0.1-1-0.1-2.2-0.1-2.9v-12.2h2.3c0.7 0 1.8 0.1 2.7 0.1l-0.2-3h-13.2l-0.2 3c0.8 0 2-0.1 2.6-0.1h2.4v12.2c0 0.7 0 1.9-0.1 2.9zm7.5 0h4.1c0.1-0.9 0.3-1.7 0.6-2.5l0.2-0.5h6.7l0.2 0.5c0.2 0.8 0.4 1.6 0.6 2.5h4.3c-0.4-0.8-0.8-1.8-1-2.5l-5.2-15.5h-4.5c-0.1 0.6-0.3 1.2-0.5 1.8l-4.5 13.7c-0.2 0.7-0.6 1.7-1 2.5zm5.8-6l2.5-8.4 2.4 8.4zm23.7-11.9c-1-0.3-2.3-0.4-3.6-0.4-5.7 0-9.2 3.5-9.2 9.3 0 5.8 3.5 9.3 9.2 9.3 1.4 0 2.6-0.1 3.7-0.4l0.2-3.2c-0.8 0.3-2.2 0.5-3.7 0.5-3.6 0-5.8-2.3-5.8-6.2 0-3.9 2.2-6.3 5.8-6.3 1.3 0 2.8 0.3 3.7 0.7zm7.9 17.8h3.8c-0.1-0.9-0.1-2.1-0.1-2.9v-12.1h2.2c0.8 0 1.9 0 2.8 0.1l-0.2-3.1h-13.3l-0.2 3.1c0.9-0.1 2-0.1 2.7-0.1h2.4v12.1c0 0.8-0.1 2-0.1 2.9z"/>
	</g>
</svg>