<svg version="1.2" xmlns="http://www.w3.org/2000/svg" viewBox="109 208 167 42" width="167" height="42">
	<style>
		.s0 { fill: #cd532a } 
	</style>
	<g id="Layer 1">
		<path id="hoMe" class="s0" aria-label="hoMe"  d="m153.6 246h3.8c0-0.9-0.1-2.1-0.1-2.9v-4.4h7.3v4.4c0 0.8 0 2-0.1 2.9h3.8c-0.1-0.9-0.1-2.1-0.1-2.9v-12.2c0-0.8 0-2 0.1-2.9h-3.8c0.1 0.9 0.1 2.1 0.1 2.9v4.9h-7.3v-4.9c0-0.8 0.1-2 0.1-2.9h-3.8c0.1 0.9 0.1 2.1 0.1 2.9v12.2c0 0.8 0 2-0.1 2.9zm25.7-2.8c-2.9 0-4.7-2.4-4.7-6.2 0-3.8 1.8-6.2 4.7-6.2 2.8 0 4.6 2.4 4.6 6.2 0 3.8-1.8 6.2-4.6 6.2zm0 3.1c5.1 0 8.3-3.7 8.3-9.4 0-5.6-3.2-9.2-8.3-9.2-5.1 0-8.3 3.6-8.3 9.2 0 5.7 3.2 9.4 8.3 9.4zm10.3-0.3h3.6c-0.1-0.9-0.1-2.1-0.1-2.9v-8.9l4.2 11.8h2.2l3.9-11.4v8.5c0 0.8 0 2-0.1 2.9h3.8c0-0.9-0.1-2.1-0.1-2.9v-12.2c0-0.8 0.1-2 0.1-2.9h-4.4l-4.3 12.7-4.4-12.7h-4.4c0.1 0.9 0.1 2.1 0.1 2.9v12.2c0 0.8 0 2-0.1 2.9zm21 0h10.9l0.2-3.1c-0.9 0.1-1.9 0.1-2.7 0.1h-4.7v-4.7h4.3c0.5 0 1.4 0 1.9 0l-0.2-3c-0.5 0.1-1.2 0.1-1.7 0.1h-4.3v-4.4h4.6c0.7 0 1.9 0 2.7 0.1l-0.2-3.1h-10.8c0.1 1 0.1 2.1 0.1 2.9v12.2c0 0.8 0 2-0.1 2.9z"/>
	</g>
</svg>